# xmcd
#
# Track frame offsets:
#	150
#	19781
#	34734
#	47933
#	62596
#	78123
#	97068
#	116735
#	131654
#	144865
#	159587
#	175140
#
# Disc length: 2588 seconds
#
# Revision: 1
# Processed by: cddbd v1.5.1PL2 Copyright (c) Steve Scherf et al.
# Submitted via: audiograbber 1.83.01
#
DISCID=9b0a1a0c
DTITLE=Various Artist - CB2266
DYEAR=1900
DGENRE=Karaoke
TTITLE0="Earl" Paul Craft - Vocals
TTITLE1=Kacey Jones and Delbert McClinton - Vocals
TTITLE2=Rodney Carrington - Vocals
TTITLE3=Bill Engvall feat. Tracy Byrd, Neal McCoy and T. Graham Brown - Vocals
TTITLE4=Chuck Wagon And The Wheels - Vocals
TTITLE5=Cledus T. Judd - Vocals
TTITLE6="Earl" Paul Craft - Hey Girls...This Is Earl...I Didn't Die
TTITLE7=Kacey Jones and Delbert McClinton - You're The Reason Our Kids Are Ugly
TTITLE8=Rodney Carrington - More Of A Man
TTITLE9=Bill Engvall feat. Tracy Byrd, Neal McCoy and T. Graham Brown - Now That'
TTITLE9=s Awesome
TTITLE10=Chuck Wagon And The Wheels - Play That Country Music Cowboy
TTITLE11=Cledus T. Judd - My Cellmate Thinks I'm Sexy
EXTD=
EXTT0=
EXTT1=
EXTT2=
EXTT3=
EXTT4=
EXTT5=
EXTT6=
EXTT7=
EXTT8=
EXTT9=
EXTT10=
EXTT11=
PLAYORDER=
